<mxfile host="app.diagrams.net" modified="2023-10-18T12:00:00.000Z" agent="Mozilla/5.0" version="27.0.6">
  <diagram name="Page-1" id="J3KCKedbq1iABVvFpygW">
    <mxGraphModel dx="1422" dy="794" grid="1" gridSize="10" guides="1" tooltips="1" connect="1" arrows="1" fold="1" page="1" pageScale="1" pageWidth="850" pageHeight="1100">
      <root>
        <mxCell id="0" />
        <mxCell id="1" parent="0" />
  
        <mxCell id="user" value="Пользователь" style="swimlane;whiteSpace=wrap;html=1;" vertex="1" parent="1">
          <mxGeometry x="100" y="100" width="100" height="500" as="geometry" />
        </mxCell>
        
        <mxCell id="ui" value="Интерфейс" style="swimlane;whiteSpace=wrap;html=1;" vertex="1" parent="1">
          <mxGeometry x="250" y="100" width="100" height="500" as="geometry" />
        </mxCell>
        
        <mxCell id="auth" value="Аутентификация" style="swimlane;whiteSpace=wrap;html=1;" vertex="1" parent="1">
          <mxGeometry x="400" y="100" width="100" height="500" as="geometry" />
        </mxCell>
        
        <mxCell id="db" value="База данных" style="swimlane;whiteSpace=wrap;html=1;" vertex="1" parent="1">
          <mxGeometry x="550" y="100" width="100" height="500" as="geometry" />
        </mxCell>
     
        <mxCell id="m1" value="Открыть форму входа" style="edgeStyle=none;html=1;rounded=0;exitX=1;exitY=0.2;exitDx=0;exitDy=0;entryX=0;entryY=0.2;entryDx=0;entryDy=0;" edge="1" parent="1" source="user" target="ui">
          <mxGeometry relative="1" as="geometry" />
        </mxCell>
        
        <mxCell id="m2" value="Показать форму входа" style="edgeStyle=none;html=1;rounded=0;exitX=1;exitY=0.3;exitDx=0;exitDy=0;entryX=0;entryY=0.3;entryDx=0;entryDy=0;" edge="1" parent="1" source="ui" target="user">
          <mxGeometry relative="1" as="geometry" />
        </mxCell>
        
        <mxCell id="m3" value="Ввести логин/пароль" style="edgeStyle=none;html=1;rounded=0;exitX=1;exitY=0.4;exitDx=0;exitDy=0;entryX=0;entryY=0.4;entryDx=0;entryDy=0;" edge="1" parent="1" source="user" target="ui">
          <mxGeometry relative="1" as="geometry" />
        </mxCell>
        
        <mxCell id="m4" value="Запрос аутентификации" style="edgeStyle=none;html=1;rounded=0;exitX=1;exitY=0.5;exitDx=0;exitDy=0;entryX=0;entryY=0.5;entryDx=0;entryDy=0;" edge="1" parent="1" source="ui" target="auth">
          <mxGeometry relative="1" as="geometry" />
        </mxCell>
        
        <mxCell id="m5" value="Проверить учетные данные" style="edgeStyle=none;html=1;rounded=0;exitX=1;exitY=0.6;exitDx=0;exitDy=0;entryX=0;entryY=0.6;entryDx=0;entryDy=0;" edge="1" parent="1" source="auth" target="db">
          <mxGeometry relative="1" as="geometry" />
        </mxCell>
        
        <mxCell id="m6" value="Результат проверки" style="edgeStyle=none;html=1;rounded=0;exitX=1;exitY=0.7;exitDx=0;exitDy=0;entryX=0;entryY=0.7;entryDx=0;entryDy=0;" edge="1" parent="1" source="db" target="auth">
          <mxGeometry relative="1" as="geometry" />
        </mxCell>
        
        <mxCell id="m7" value="alt: данные верны" style="edgeStyle=none;html=1;rounded=0;exitX=1;exitY=0.8;exitDx=0;exitDy=0;entryX=0;entryY=0.8;entryDx=0;entryDy=0;" edge="1" parent="1" source="auth" target="ui">
          <mxGeometry relative="1" as="geometry" />
        </mxCell>
        
        <mxCell id="m8" value="Открыть главное меню" style="edgeStyle=none;html=1;rounded=0;exitX=1;exitY=0.9;exitDx=0;exitDy=0;entryX=0;entryY=0.9;entryDx=0;entryDy=0;" edge="1" parent="1" source="ui" target="user">
          <mxGeometry relative="1" as="geometry" />
        </mxCell>
        
        <mxCell id="m9" value="alt: ошибка аутентификации" style="edgeStyle=none;html=1;rounded=0;exitX=1;exitY=0.8;exitDx=0;exitDy=0;entryX=0;entryY=0.8;entryDx=0;entryDy=0;" edge="1" parent="1" source="auth" target="ui">
          <mxGeometry relative="1" as="geometry">
            <mxPoint x="500" y="400" as="sourcePoint" />
            <mxPoint x="300" y="400" as="targetPoint" />
          </mxGeometry>
        </mxCell>
        
        <mxCell id="m10" value="Показать ошибку" style="edgeStyle=none;html=1;rounded=0;exitX=1;exitY=0.9;exitDx=0;exitDy=0;entryX=0;entryY=0.9;entryDx=0;entryDy=0;" edge="1" parent="1" source="ui" target="user">
          <mxGeometry relative="1" as="geometry">
            <mxPoint x="300" y="450" as="sourcePoint" />
            <mxPoint x="150" y="450" as="targetPoint" />
          </mxGeometry>
        </mxCell>

        <mxCell id="alt1" value="[Данные верны]" style="text;html=1;strokeColor=none;fillColor=none;align=left;verticalAlign=middle;whiteSpace=wrap;rounded=0;" vertex="1" parent="1">
          <mxGeometry x="300" y="350" width="100" height="20" as="geometry" />
        </mxCell>
        
        <mxCell id="alt2" value="[Ошибка аутентификации]" style="text;html=1;strokeColor=none;fillColor=none;align=left;verticalAlign=middle;whiteSpace=wrap;rounded=0;" vertex="1" parent="1">
          <mxGeometry x="300" y="420" width="150" height="20" as="geometry" />
        </mxCell>
   
        <mxCell id="a1" value="" style="shape=partialRectangle;connectable=0;fillColor=none;top=0;left=0;bottom=0;right=0;strokeColor=#000000;" vertex="1" parent="1">
          <mxGeometry x="250" y="150" width="100" height="380" as="geometry" />
        </mxCell>
        
        <mxCell id="a2" value="" style="shape=partialRectangle;connectable=0;fillColor=none;top=0;left=0;bottom=0;right=0;strokeColor=#000000;" vertex="1" parent="1">
          <mxGeometry x="400" y="200" width="100" height="330" as="geometry" />
        </mxCell>
        
        <mxCell id="a3" value="" style="shape=partialRectangle;connectable=0;fillColor=none;top=0;left=0;bottom=0;right=0;strokeColor=#000000;" vertex="1" parent="1">
          <mxGeometry x="550" y="250" width="100" height="50" as="geometry" />
        </mxCell>
      </root>
    </mxGraphModel>
  </diagram>
</mxfile>
